<?xml version="1.0" encoding="UTF-8" standalone="no"?><svg xmlns="http://www.w3.org/2000/svg" xmlns:xlink="http://www.w3.org/1999/xlink" contentScriptType="application/ecmascript" contentStyleType="text/css" height="1007px" preserveAspectRatio="none" style="width:333px;height:1007px;" version="1.1" viewBox="0 0 333 1007" width="333px" zoomAndPan="magnify"><defs><filter height="300%" id="fo7p2dr6v4et6" width="300%" x="-1" y="-1"><feGaussianBlur result="blurOut" stdDeviation="2.0"/><feColorMatrix in="blurOut" result="blurOut2" type="matrix" values="0 0 0 0 0 0 0 0 0 0 0 0 0 0 0 0 0 0 .4 0"/><feOffset dx="4.0" dy="4.0" in="blurOut2" result="blurOut3"/><feBlend in="SourceGraphic" in2="blurOut3" mode="normal"/></filter></defs><g><line style="stroke: #A80036; stroke-width: 1.0;" x1="32" x2="32" y1="38.4883" y2="658.0781"/><line style="stroke: #A80036; stroke-width: 1.0; stroke-dasharray: 1.0,4.0;" x1="32" x2="32" y1="658.0781" y2="686.0781"/><line style="stroke: #A80036; stroke-width: 1.0;" x1="32" x2="32" y1="686.0781" y2="744.6992"/><line style="stroke: #A80036; stroke-width: 1.0; stroke-dasharray: 1.0,4.0;" x1="32" x2="32" y1="744.6992" y2="772.6992"/><line style="stroke: #A80036; stroke-width: 1.0;" x1="32" x2="32" y1="772.6992" y2="844.3203"/><line style="stroke: #A80036; stroke-width: 1.0; stroke-dasharray: 1.0,4.0;" x1="32" x2="32" y1="844.3203" y2="872.3203"/><line style="stroke: #A80036; stroke-width: 1.0;" x1="32" x2="32" y1="872.3203" y2="930.9414"/><line style="stroke: #A80036; stroke-width: 1.0; stroke-dasharray: 1.0,4.0;" x1="32" x2="32" y1="930.9414" y2="958.9414"/><line style="stroke: #A80036; stroke-width: 1.0;" x1="32" x2="32" y1="958.9414" y2="968.9414"/><line style="stroke: #A80036; stroke-width: 1.0;" x1="103" x2="103" y1="38.4883" y2="658.0781"/><line style="stroke: #A80036; stroke-width: 1.0; stroke-dasharray: 1.0,4.0;" x1="103" x2="103" y1="658.0781" y2="686.0781"/><line style="stroke: #A80036; stroke-width: 1.0;" x1="103" x2="103" y1="686.0781" y2="744.6992"/><line style="stroke: #A80036; stroke-width: 1.0; stroke-dasharray: 1.0,4.0;" x1="103" x2="103" y1="744.6992" y2="772.6992"/><line style="stroke: #A80036; stroke-width: 1.0;" x1="103" x2="103" y1="772.6992" y2="844.3203"/><line style="stroke: #A80036; stroke-width: 1.0; stroke-dasharray: 1.0,4.0;" x1="103" x2="103" y1="844.3203" y2="872.3203"/><line style="stroke: #A80036; stroke-width: 1.0;" x1="103" x2="103" y1="872.3203" y2="930.9414"/><line style="stroke: #A80036; stroke-width: 1.0; stroke-dasharray: 1.0,4.0;" x1="103" x2="103" y1="930.9414" y2="958.9414"/><line style="stroke: #A80036; stroke-width: 1.0;" x1="103" x2="103" y1="958.9414" y2="968.9414"/><line style="stroke: #A80036; stroke-width: 1.0;" x1="178" x2="178" y1="38.4883" y2="658.0781"/><line style="stroke: #A80036; stroke-width: 1.0; stroke-dasharray: 1.0,4.0;" x1="178" x2="178" y1="658.0781" y2="686.0781"/><line style="stroke: #A80036; stroke-width: 1.0;" x1="178" x2="178" y1="686.0781" y2="744.6992"/><line style="stroke: #A80036; stroke-width: 1.0; stroke-dasharray: 1.0,4.0;" x1="178" x2="178" y1="744.6992" y2="772.6992"/><line style="stroke: #A80036; stroke-width: 1.0;" x1="178" x2="178" y1="772.6992" y2="844.3203"/><line style="stroke: #A80036; stroke-width: 1.0; stroke-dasharray: 1.0,4.0;" x1="178" x2="178" y1="844.3203" y2="872.3203"/><line style="stroke: #A80036; stroke-width: 1.0;" x1="178" x2="178" y1="872.3203" y2="930.9414"/><line style="stroke: #A80036; stroke-width: 1.0; stroke-dasharray: 1.0,4.0;" x1="178" x2="178" y1="930.9414" y2="958.9414"/><line style="stroke: #A80036; stroke-width: 1.0;" x1="178" x2="178" y1="958.9414" y2="968.9414"/><line style="stroke: #A80036; stroke-width: 1.0;" x1="261" x2="261" y1="38.4883" y2="658.0781"/><line style="stroke: #A80036; stroke-width: 1.0; stroke-dasharray: 1.0,4.0;" x1="261" x2="261" y1="658.0781" y2="686.0781"/><line style="stroke: #A80036; stroke-width: 1.0;" x1="261" x2="261" y1="686.0781" y2="744.6992"/><line style="stroke: #A80036; stroke-width: 1.0; stroke-dasharray: 1.0,4.0;" x1="261" x2="261" y1="744.6992" y2="772.6992"/><line style="stroke: #A80036; stroke-width: 1.0;" x1="261" x2="261" y1="772.6992" y2="844.3203"/><line style="stroke: #A80036; stroke-width: 1.0; stroke-dasharray: 1.0,4.0;" x1="261" x2="261" y1="844.3203" y2="872.3203"/><line style="stroke: #A80036; stroke-width: 1.0;" x1="261" x2="261" y1="872.3203" y2="930.9414"/><line style="stroke: #A80036; stroke-width: 1.0; stroke-dasharray: 1.0,4.0;" x1="261" x2="261" y1="930.9414" y2="958.9414"/><line style="stroke: #A80036; stroke-width: 1.0;" x1="261" x2="261" y1="958.9414" y2="968.9414"/><rect fill="#FEFECE" filter="url(#fo7p2dr6v4et6)" height="30.4883" style="stroke: #A80036; stroke-width: 1.5;" width="45" x="8" y="3"/><text fill="#000000" font-family="sans-serif" font-size="14" lengthAdjust="spacingAndGlyphs" textLength="31" x="15" y="23.5352">User</text><rect fill="#FEFECE" filter="url(#fo7p2dr6v4et6)" height="30.4883" style="stroke: #A80036; stroke-width: 1.5;" width="45" x="8" y="967.9414"/><text fill="#000000" font-family="sans-serif" font-size="14" lengthAdjust="spacingAndGlyphs" textLength="31" x="15" y="988.4766">User</text><rect fill="#FEFECE" filter="url(#fo7p2dr6v4et6)" height="30.4883" style="stroke: #A80036; stroke-width: 1.5;" width="59" x="72" y="3"/><text fill="#000000" font-family="sans-serif" font-size="14" lengthAdjust="spacingAndGlyphs" textLength="45" x="79" y="23.5352">Admin</text><rect fill="#FEFECE" filter="url(#fo7p2dr6v4et6)" height="30.4883" style="stroke: #A80036; stroke-width: 1.5;" width="59" x="72" y="967.9414"/><text fill="#000000" font-family="sans-serif" font-size="14" lengthAdjust="spacingAndGlyphs" textLength="45" x="79" y="988.4766">Admin</text><rect fill="#FEFECE" filter="url(#fo7p2dr6v4et6)" height="30.4883" style="stroke: #A80036; stroke-width: 1.5;" width="62" x="145" y="3"/><text fill="#000000" font-family="sans-serif" font-size="14" lengthAdjust="spacingAndGlyphs" textLength="48" x="152" y="23.5352">Service</text><rect fill="#FEFECE" filter="url(#fo7p2dr6v4et6)" height="30.4883" style="stroke: #A80036; stroke-width: 1.5;" width="62" x="145" y="967.9414"/><text fill="#000000" font-family="sans-serif" font-size="14" lengthAdjust="spacingAndGlyphs" textLength="48" x="152" y="988.4766">Service</text><rect fill="#FEFECE" filter="url(#fo7p2dr6v4et6)" height="30.4883" style="stroke: #A80036; stroke-width: 1.5;" width="70" x="224" y="3"/><text fill="#000000" font-family="sans-serif" font-size="14" lengthAdjust="spacingAndGlyphs" textLength="56" x="231" y="23.5352">Account</text><rect fill="#FEFECE" filter="url(#fo7p2dr6v4et6)" height="30.4883" style="stroke: #A80036; stroke-width: 1.5;" width="70" x="224" y="967.9414"/><text fill="#000000" font-family="sans-serif" font-size="14" lengthAdjust="spacingAndGlyphs" textLength="56" x="231" y="988.4766">Account</text><rect fill="#EEEEEE" filter="url(#fo7p2dr6v4et6)" height="3" style="stroke: #EEEEEE; stroke-width: 1.0;" width="325" x="3" y="69.1436"/><line style="stroke: #000000; stroke-width: 1.0;" x1="3" x2="328" y1="69.1436" y2="69.1436"/><line style="stroke: #000000; stroke-width: 1.0;" x1="3" x2="328" y1="72.1436" y2="72.1436"/><rect fill="#EEEEEE" filter="url(#fo7p2dr6v4et6)" height="23.3105" style="stroke: #000000; stroke-width: 2.0;" width="74" x="128.5" y="58.4883"/><text fill="#000000" font-family="sans-serif" font-size="13" font-weight="bold" lengthAdjust="spacingAndGlyphs" textLength="56" x="134.5" y="75.0566">Register</text><polygon fill="#A80036" points="91.5,108.7988,101.5,112.7988,91.5,116.7988,95.5,112.7988" style="stroke: #A80036; stroke-width: 1.0;"/><line style="stroke: #A80036; stroke-width: 1.0;" x1="32.5" x2="97.5" y1="112.7988" y2="112.7988"/><text fill="#000000" font-family="sans-serif" font-size="13" lengthAdjust="spacingAndGlyphs" textLength="34" x="39.5" y="108.3672">apply</text><polygon fill="#A80036" points="166,138.1094,176,142.1094,166,146.1094,170,142.1094" style="stroke: #A80036; stroke-width: 1.0;"/><line style="stroke: #A80036; stroke-width: 1.0;" x1="32.5" x2="172" y1="142.1094" y2="142.1094"/><text fill="#000000" font-family="sans-serif" font-size="13" lengthAdjust="spacingAndGlyphs" textLength="34" x="39.5" y="137.6777">apply</text><polygon fill="#A80036" points="249,167.4199,259,171.4199,249,175.4199,253,171.4199" style="stroke: #A80036; stroke-width: 1.0;"/><line style="stroke: #A80036; stroke-width: 1.0;" x1="103.5" x2="255" y1="171.4199" y2="171.4199"/><text fill="#000000" font-family="sans-serif" font-size="13" lengthAdjust="spacingAndGlyphs" textLength="38" x="110.5" y="166.9883">create</text><polygon fill="#A80036" points="166,196.7305,176,200.7305,166,204.7305,170,200.7305" style="stroke: #A80036; stroke-width: 1.0;"/><line style="stroke: #A80036; stroke-width: 1.0;" x1="103.5" x2="172" y1="200.7305" y2="200.7305"/><text fill="#000000" font-family="sans-serif" font-size="13" lengthAdjust="spacingAndGlyphs" textLength="48" x="110.5" y="196.2988">register</text><polygon fill="#A80036" points="249,226.041,259,230.041,249,234.041,253,230.041" style="stroke: #A80036; stroke-width: 1.0;"/><line style="stroke: #A80036; stroke-width: 1.0;" x1="178" x2="255" y1="230.041" y2="230.041"/><text fill="#000000" font-family="sans-serif" font-size="13" lengthAdjust="spacingAndGlyphs" textLength="48" x="185" y="225.6094">register</text><rect fill="#EEEEEE" filter="url(#fo7p2dr6v4et6)" height="3" style="stroke: #EEEEEE; stroke-width: 1.0;" width="325" x="3" y="259.0068"/><line style="stroke: #000000; stroke-width: 1.0;" x1="3" x2="328" y1="259.0068" y2="259.0068"/><line style="stroke: #000000; stroke-width: 1.0;" x1="3" x2="328" y1="262.0068" y2="262.0068"/><rect fill="#EEEEEE" filter="url(#fo7p2dr6v4et6)" height="23.3105" style="stroke: #000000; stroke-width: 2.0;" width="69" x="131" y="248.3516"/><text fill="#000000" font-family="sans-serif" font-size="13" font-weight="bold" lengthAdjust="spacingAndGlyphs" textLength="51" x="137" y="264.9199">Deposit</text><polygon fill="#A80036" points="91.5,298.6621,101.5,302.6621,91.5,306.6621,95.5,302.6621" style="stroke: #A80036; stroke-width: 1.0;"/><line style="stroke: #A80036; stroke-width: 1.0;" x1="32.5" x2="97.5" y1="302.6621" y2="302.6621"/><text fill="#000000" font-family="sans-serif" font-size="13" lengthAdjust="spacingAndGlyphs" textLength="47" x="39.5" y="298.2305">deposit</text><line style="stroke: #A80036; stroke-width: 1.0;" x1="103.5" x2="145.5" y1="332.2832" y2="332.2832"/><line style="stroke: #A80036; stroke-width: 1.0;" x1="145.5" x2="145.5" y1="332.2832" y2="345.2832"/><line style="stroke: #A80036; stroke-width: 1.0;" x1="104.5" x2="145.5" y1="345.2832" y2="345.2832"/><polygon fill="#A80036" points="114.5,341.2832,104.5,345.2832,114.5,349.2832,110.5,345.2832" style="stroke: #A80036; stroke-width: 1.0;"/><text fill="#000000" font-family="sans-serif" font-size="13" lengthAdjust="spacingAndGlyphs" textLength="50" x="110.5" y="327.541">approve</text><polygon fill="#A80036" points="249,370.2832,259,374.2832,249,378.2832,253,374.2832" style="stroke: #A80036; stroke-width: 1.0;"/><line style="stroke: #A80036; stroke-width: 1.0;" x1="103.5" x2="255" y1="374.2832" y2="374.2832"/><text fill="#000000" font-family="sans-serif" font-size="13" lengthAdjust="spacingAndGlyphs" textLength="47" x="110.5" y="369.8516">deposit</text><line style="stroke: #A80036; stroke-width: 1.0;" x1="261" x2="303" y1="403.9043" y2="403.9043"/><line style="stroke: #A80036; stroke-width: 1.0;" x1="303" x2="303" y1="403.9043" y2="416.9043"/><line style="stroke: #A80036; stroke-width: 1.0;" x1="262" x2="303" y1="416.9043" y2="416.9043"/><polygon fill="#A80036" points="272,412.9043,262,416.9043,272,420.9043,268,416.9043" style="stroke: #A80036; stroke-width: 1.0;"/><text fill="#000000" font-family="sans-serif" font-size="13" lengthAdjust="spacingAndGlyphs" textLength="49" x="268" y="399.1621">activate</text><rect fill="#EEEEEE" filter="url(#fo7p2dr6v4et6)" height="3" style="stroke: #EEEEEE; stroke-width: 1.0;" width="325" x="3" y="445.5596"/><line style="stroke: #000000; stroke-width: 1.0;" x1="3" x2="328" y1="445.5596" y2="445.5596"/><line style="stroke: #000000; stroke-width: 1.0;" x1="3" x2="328" y1="448.5596" y2="448.5596"/><rect fill="#EEEEEE" filter="url(#fo7p2dr6v4et6)" height="23.3105" style="stroke: #000000; stroke-width: 2.0;" width="43" x="144" y="434.9043"/><text fill="#000000" font-family="sans-serif" font-size="13" font-weight="bold" lengthAdjust="spacingAndGlyphs" textLength="25" x="150" y="451.4727">Use</text><polygon fill="#A80036" points="166,485.2148,176,489.2148,166,493.2148,170,489.2148" style="stroke: #A80036; stroke-width: 1.0;"/><line style="stroke: #A80036; stroke-width: 1.0;" x1="32.5" x2="172" y1="489.2148" y2="489.2148"/><text fill="#000000" font-family="sans-serif" font-size="13" lengthAdjust="spacingAndGlyphs" textLength="47" x="39.5" y="484.7832">request</text><polygon fill="#A80036" points="249,514.5254,259,518.5254,249,522.5254,253,518.5254" style="stroke: #A80036; stroke-width: 1.0;"/><line style="stroke: #A80036; stroke-width: 1.0;" x1="178" x2="255" y1="518.5254" y2="518.5254"/><text fill="#000000" font-family="sans-serif" font-size="13" lengthAdjust="spacingAndGlyphs" textLength="42" x="185" y="514.0938">charge</text><polygon fill="#A80036" points="189,543.8359,179,547.8359,189,551.8359,185,547.8359" style="stroke: #A80036; stroke-width: 1.0;"/><line style="stroke: #A80036; stroke-width: 1.0;" x1="183" x2="260" y1="547.8359" y2="547.8359"/><text fill="#000000" font-family="sans-serif" font-size="13" lengthAdjust="spacingAndGlyphs" textLength="59" x="195" y="543.4043">authorize</text><polygon fill="#A80036" points="166,573.1465,176,577.1465,166,581.1465,170,577.1465" style="stroke: #A80036; stroke-width: 1.0;"/><line style="stroke: #A80036; stroke-width: 1.0;" x1="32.5" x2="172" y1="577.1465" y2="577.1465"/><text fill="#000000" font-family="sans-serif" font-size="13" lengthAdjust="spacingAndGlyphs" textLength="22" x="39.5" y="572.7148">use</text><polygon fill="#A80036" points="249,602.457,259,606.457,249,610.457,253,606.457" style="stroke: #A80036; stroke-width: 1.0;"/><line style="stroke: #A80036; stroke-width: 1.0;" x1="178" x2="255" y1="606.457" y2="606.457"/><text fill="#000000" font-family="sans-serif" font-size="13" lengthAdjust="spacingAndGlyphs" textLength="41" x="185" y="602.0254">refund</text><rect fill="#EEEEEE" filter="url(#fo7p2dr6v4et6)" height="3" style="stroke: #EEEEEE; stroke-width: 1.0;" width="325" x="3" y="635.4229"/><line style="stroke: #000000; stroke-width: 1.0;" x1="3" x2="328" y1="635.4229" y2="635.4229"/><line style="stroke: #000000; stroke-width: 1.0;" x1="3" x2="328" y1="638.4229" y2="638.4229"/><rect fill="#EEEEEE" filter="url(#fo7p2dr6v4et6)" height="23.3105" style="stroke: #000000; stroke-width: 2.0;" width="102" x="114.5" y="624.7676"/><text fill="#000000" font-family="sans-serif" font-size="13" font-weight="bold" lengthAdjust="spacingAndGlyphs" textLength="84" x="120.5" y="641.3359">Deactivation</text><polygon fill="#A80036" points="249,703.0781,259,707.0781,249,711.0781,253,707.0781" style="stroke: #A80036; stroke-width: 1.0;"/><line style="stroke: #A80036; stroke-width: 1.0;" x1="103.5" x2="255" y1="707.0781" y2="707.0781"/><text fill="#000000" font-family="sans-serif" font-size="13" lengthAdjust="spacingAndGlyphs" textLength="53" x="110.5" y="702.6465">suspend</text><polygon fill="#A80036" points="43.5,732.3887,33.5,736.3887,43.5,740.3887,39.5,736.3887" style="stroke: #A80036; stroke-width: 1.0;"/><line style="stroke: #A80036; stroke-width: 1.0;" x1="37.5" x2="260" y1="736.3887" y2="736.3887"/><text fill="#000000" font-family="sans-serif" font-size="13" lengthAdjust="spacingAndGlyphs" textLength="37" x="49.5" y="731.957">notify</text><line style="stroke: #A80036; stroke-width: 1.0;" x1="261" x2="303" y1="794.0098" y2="794.0098"/><line style="stroke: #A80036; stroke-width: 1.0;" x1="303" x2="303" y1="794.0098" y2="807.0098"/><line style="stroke: #A80036; stroke-width: 1.0;" x1="262" x2="303" y1="807.0098" y2="807.0098"/><polygon fill="#A80036" points="272,803.0098,262,807.0098,272,811.0098,268,807.0098" style="stroke: #A80036; stroke-width: 1.0;"/><text fill="#000000" font-family="sans-serif" font-size="13" lengthAdjust="spacingAndGlyphs" textLength="53" x="268" y="789.2676">suspend</text><polygon fill="#A80036" points="43.5,832.0098,33.5,836.0098,43.5,840.0098,39.5,836.0098" style="stroke: #A80036; stroke-width: 1.0;"/><line style="stroke: #A80036; stroke-width: 1.0;" x1="37.5" x2="260" y1="836.0098" y2="836.0098"/><text fill="#000000" font-family="sans-serif" font-size="13" lengthAdjust="spacingAndGlyphs" textLength="37" x="49.5" y="831.5781">notify</text><polygon fill="#A80036" points="249,889.3203,259,893.3203,249,897.3203,253,893.3203" style="stroke: #A80036; stroke-width: 1.0;"/><line style="stroke: #A80036; stroke-width: 1.0;" x1="103.5" x2="255" y1="893.3203" y2="893.3203"/><text fill="#000000" font-family="sans-serif" font-size="13" lengthAdjust="spacingAndGlyphs" textLength="38" x="110.5" y="888.8887">delete</text><polygon fill="#A80036" points="43.5,918.6309,33.5,922.6309,43.5,926.6309,39.5,922.6309" style="stroke: #A80036; stroke-width: 1.0;"/><line style="stroke: #A80036; stroke-width: 1.0;" x1="37.5" x2="260" y1="922.6309" y2="922.6309"/><text fill="#000000" font-family="sans-serif" font-size="13" lengthAdjust="spacingAndGlyphs" textLength="37" x="49.5" y="918.1992">notify</text><!--
@startuml
== Register ==
User->Admin: apply
User->Service: apply
Admin->Account: create
Admin->Service:register
Service->Account:register
== Deposit ==
User->Admin: deposit
Admin->Admin:approve
Admin->Account: deposit
Account->Account: activate
== Use ==
User->Service: request
Service->Account: charge
Account->Service: authorize
User->Service: use
Service->Account: refund
== Deactivation ==
...
Admin->Account: suspend
Account->User: notify
...
Account->Account: suspend
Account->User: notify
...
Admin->Account: delete
Account->User: notify
...
@enduml

PlantUML version 1.2017.13(Wed May 10 12:52:33 EDT 2017)
(GPL source distribution)
Java Runtime: Java(TM) SE Runtime Environment
JVM: Java HotSpot(TM) 64-Bit Server VM
Java Version: 1.8.0_121-b13
Operating System: Mac OS X
OS Version: 10.12.4
Default Encoding: UTF-8
Language: en
Country: US
--></g></svg>