<?xml version="1.0" encoding="UTF-8" standalone="no"?><svg xmlns="http://www.w3.org/2000/svg" xmlns:xlink="http://www.w3.org/1999/xlink" contentScriptType="application/ecmascript" contentStyleType="text/css" height="1002px" preserveAspectRatio="none" style="width:340px;height:1002px;" version="1.1" viewBox="0 0 340 1002" width="340px" zoomAndPan="magnify"><defs><filter height="300%" id="fo7p2dr6v4et6" width="300%" x="-1" y="-1"><feGaussianBlur result="blurOut" stdDeviation="2.0"/><feColorMatrix in="blurOut" result="blurOut2" type="matrix" values="0 0 0 0 0 0 0 0 0 0 0 0 0 0 0 0 0 0 .4 0"/><feOffset dx="4.0" dy="4.0" in="blurOut2" result="blurOut3"/><feBlend in="SourceGraphic" in2="blurOut3" mode="normal"/></filter></defs><g><line style="stroke: #A80036; stroke-width: 1.0;" x1="33" x2="33" y1="38.2969" y2="654.6875"/><line style="stroke: #A80036; stroke-width: 1.0; stroke-dasharray: 1.0,4.0;" x1="33" x2="33" y1="654.6875" y2="682.6875"/><line style="stroke: #A80036; stroke-width: 1.0;" x1="33" x2="33" y1="682.6875" y2="740.9531"/><line style="stroke: #A80036; stroke-width: 1.0; stroke-dasharray: 1.0,4.0;" x1="33" x2="33" y1="740.9531" y2="768.9531"/><line style="stroke: #A80036; stroke-width: 1.0;" x1="33" x2="33" y1="768.9531" y2="840.2188"/><line style="stroke: #A80036; stroke-width: 1.0; stroke-dasharray: 1.0,4.0;" x1="33" x2="33" y1="840.2188" y2="868.2188"/><line style="stroke: #A80036; stroke-width: 1.0;" x1="33" x2="33" y1="868.2188" y2="926.4844"/><line style="stroke: #A80036; stroke-width: 1.0; stroke-dasharray: 1.0,4.0;" x1="33" x2="33" y1="926.4844" y2="954.4844"/><line style="stroke: #A80036; stroke-width: 1.0;" x1="33" x2="33" y1="954.4844" y2="964.4844"/><line style="stroke: #A80036; stroke-width: 1.0;" x1="105" x2="105" y1="38.2969" y2="654.6875"/><line style="stroke: #A80036; stroke-width: 1.0; stroke-dasharray: 1.0,4.0;" x1="105" x2="105" y1="654.6875" y2="682.6875"/><line style="stroke: #A80036; stroke-width: 1.0;" x1="105" x2="105" y1="682.6875" y2="740.9531"/><line style="stroke: #A80036; stroke-width: 1.0; stroke-dasharray: 1.0,4.0;" x1="105" x2="105" y1="740.9531" y2="768.9531"/><line style="stroke: #A80036; stroke-width: 1.0;" x1="105" x2="105" y1="768.9531" y2="840.2188"/><line style="stroke: #A80036; stroke-width: 1.0; stroke-dasharray: 1.0,4.0;" x1="105" x2="105" y1="840.2188" y2="868.2188"/><line style="stroke: #A80036; stroke-width: 1.0;" x1="105" x2="105" y1="868.2188" y2="926.4844"/><line style="stroke: #A80036; stroke-width: 1.0; stroke-dasharray: 1.0,4.0;" x1="105" x2="105" y1="926.4844" y2="954.4844"/><line style="stroke: #A80036; stroke-width: 1.0;" x1="105" x2="105" y1="954.4844" y2="964.4844"/><line style="stroke: #A80036; stroke-width: 1.0;" x1="182" x2="182" y1="38.2969" y2="654.6875"/><line style="stroke: #A80036; stroke-width: 1.0; stroke-dasharray: 1.0,4.0;" x1="182" x2="182" y1="654.6875" y2="682.6875"/><line style="stroke: #A80036; stroke-width: 1.0;" x1="182" x2="182" y1="682.6875" y2="740.9531"/><line style="stroke: #A80036; stroke-width: 1.0; stroke-dasharray: 1.0,4.0;" x1="182" x2="182" y1="740.9531" y2="768.9531"/><line style="stroke: #A80036; stroke-width: 1.0;" x1="182" x2="182" y1="768.9531" y2="840.2188"/><line style="stroke: #A80036; stroke-width: 1.0; stroke-dasharray: 1.0,4.0;" x1="182" x2="182" y1="840.2188" y2="868.2188"/><line style="stroke: #A80036; stroke-width: 1.0;" x1="182" x2="182" y1="868.2188" y2="926.4844"/><line style="stroke: #A80036; stroke-width: 1.0; stroke-dasharray: 1.0,4.0;" x1="182" x2="182" y1="926.4844" y2="954.4844"/><line style="stroke: #A80036; stroke-width: 1.0;" x1="182" x2="182" y1="954.4844" y2="964.4844"/><line style="stroke: #A80036; stroke-width: 1.0;" x1="267.5" x2="267.5" y1="38.2969" y2="654.6875"/><line style="stroke: #A80036; stroke-width: 1.0; stroke-dasharray: 1.0,4.0;" x1="267.5" x2="267.5" y1="654.6875" y2="682.6875"/><line style="stroke: #A80036; stroke-width: 1.0;" x1="267.5" x2="267.5" y1="682.6875" y2="740.9531"/><line style="stroke: #A80036; stroke-width: 1.0; stroke-dasharray: 1.0,4.0;" x1="267.5" x2="267.5" y1="740.9531" y2="768.9531"/><line style="stroke: #A80036; stroke-width: 1.0;" x1="267.5" x2="267.5" y1="768.9531" y2="840.2188"/><line style="stroke: #A80036; stroke-width: 1.0; stroke-dasharray: 1.0,4.0;" x1="267.5" x2="267.5" y1="840.2188" y2="868.2188"/><line style="stroke: #A80036; stroke-width: 1.0;" x1="267.5" x2="267.5" y1="868.2188" y2="926.4844"/><line style="stroke: #A80036; stroke-width: 1.0; stroke-dasharray: 1.0,4.0;" x1="267.5" x2="267.5" y1="926.4844" y2="954.4844"/><line style="stroke: #A80036; stroke-width: 1.0;" x1="267.5" x2="267.5" y1="954.4844" y2="964.4844"/><rect fill="#FEFECE" filter="url(#fo7p2dr6v4et6)" height="30.2969" style="stroke: #A80036; stroke-width: 1.5;" width="46" x="8" y="3"/><text fill="#000000" font-family="sans-serif" font-size="14" lengthAdjust="spacingAndGlyphs" textLength="32" x="15" y="22.9951">User</text><rect fill="#FEFECE" filter="url(#fo7p2dr6v4et6)" height="30.2969" style="stroke: #A80036; stroke-width: 1.5;" width="46" x="8" y="963.4844"/><text fill="#000000" font-family="sans-serif" font-size="14" lengthAdjust="spacingAndGlyphs" textLength="32" x="15" y="983.4795">User</text><rect fill="#FEFECE" filter="url(#fo7p2dr6v4et6)" height="30.2969" style="stroke: #A80036; stroke-width: 1.5;" width="60" x="73" y="3"/><text fill="#000000" font-family="sans-serif" font-size="14" lengthAdjust="spacingAndGlyphs" textLength="46" x="80" y="22.9951">Admin</text><rect fill="#FEFECE" filter="url(#fo7p2dr6v4et6)" height="30.2969" style="stroke: #A80036; stroke-width: 1.5;" width="60" x="73" y="963.4844"/><text fill="#000000" font-family="sans-serif" font-size="14" lengthAdjust="spacingAndGlyphs" textLength="46" x="80" y="983.4795">Admin</text><rect fill="#FEFECE" filter="url(#fo7p2dr6v4et6)" height="30.2969" style="stroke: #A80036; stroke-width: 1.5;" width="67" x="147" y="3"/><text fill="#000000" font-family="sans-serif" font-size="14" lengthAdjust="spacingAndGlyphs" textLength="53" x="154" y="22.9951">Service</text><rect fill="#FEFECE" filter="url(#fo7p2dr6v4et6)" height="30.2969" style="stroke: #A80036; stroke-width: 1.5;" width="67" x="147" y="963.4844"/><text fill="#000000" font-family="sans-serif" font-size="14" lengthAdjust="spacingAndGlyphs" textLength="53" x="154" y="983.4795">Service</text><rect fill="#FEFECE" filter="url(#fo7p2dr6v4et6)" height="30.2969" style="stroke: #A80036; stroke-width: 1.5;" width="72" x="229.5" y="3"/><text fill="#000000" font-family="sans-serif" font-size="14" lengthAdjust="spacingAndGlyphs" textLength="58" x="236.5" y="22.9951">Account</text><rect fill="#FEFECE" filter="url(#fo7p2dr6v4et6)" height="30.2969" style="stroke: #A80036; stroke-width: 1.5;" width="72" x="229.5" y="963.4844"/><text fill="#000000" font-family="sans-serif" font-size="14" lengthAdjust="spacingAndGlyphs" textLength="58" x="236.5" y="983.4795">Account</text><rect fill="#EEEEEE" filter="url(#fo7p2dr6v4et6)" height="3" style="stroke: #EEEEEE; stroke-width: 1.0;" width="332.5" x="3" y="68.8633"/><line style="stroke: #000000; stroke-width: 1.0;" x1="3" x2="335.5" y1="68.8633" y2="68.8633"/><line style="stroke: #000000; stroke-width: 1.0;" x1="3" x2="335.5" y1="71.8633" y2="71.8633"/><rect fill="#EEEEEE" filter="url(#fo7p2dr6v4et6)" height="23.1328" style="stroke: #000000; stroke-width: 2.0;" width="80" x="129.25" y="58.2969"/><text fill="#000000" font-family="sans-serif" font-size="13" font-weight="bold" lengthAdjust="spacingAndGlyphs" textLength="61" x="135.25" y="74.3638">Register</text><polygon fill="#A80036" points="93,108.4297,103,112.4297,93,116.4297,97,112.4297" style="stroke: #A80036; stroke-width: 1.0;"/><line style="stroke: #A80036; stroke-width: 1.0;" x1="33" x2="99" y1="112.4297" y2="112.4297"/><text fill="#000000" font-family="sans-serif" font-size="13" lengthAdjust="spacingAndGlyphs" textLength="36" x="40" y="107.4966">apply</text><polygon fill="#A80036" points="170.5,137.5625,180.5,141.5625,170.5,145.5625,174.5,141.5625" style="stroke: #A80036; stroke-width: 1.0;"/><line style="stroke: #A80036; stroke-width: 1.0;" x1="33" x2="176.5" y1="141.5625" y2="141.5625"/><text fill="#000000" font-family="sans-serif" font-size="13" lengthAdjust="spacingAndGlyphs" textLength="36" x="40" y="136.6294">apply</text><polygon fill="#A80036" points="255.5,166.6953,265.5,170.6953,255.5,174.6953,259.5,170.6953" style="stroke: #A80036; stroke-width: 1.0;"/><line style="stroke: #A80036; stroke-width: 1.0;" x1="105" x2="261.5" y1="170.6953" y2="170.6953"/><text fill="#000000" font-family="sans-serif" font-size="13" lengthAdjust="spacingAndGlyphs" textLength="41" x="112" y="165.7622">create</text><polygon fill="#A80036" points="170.5,195.8281,180.5,199.8281,170.5,203.8281,174.5,199.8281" style="stroke: #A80036; stroke-width: 1.0;"/><line style="stroke: #A80036; stroke-width: 1.0;" x1="105" x2="176.5" y1="199.8281" y2="199.8281"/><text fill="#000000" font-family="sans-serif" font-size="13" lengthAdjust="spacingAndGlyphs" textLength="50" x="112" y="194.895">register</text><polygon fill="#A80036" points="255.5,224.9609,265.5,228.9609,255.5,232.9609,259.5,228.9609" style="stroke: #A80036; stroke-width: 1.0;"/><line style="stroke: #A80036; stroke-width: 1.0;" x1="182.5" x2="261.5" y1="228.9609" y2="228.9609"/><text fill="#000000" font-family="sans-serif" font-size="13" lengthAdjust="spacingAndGlyphs" textLength="50" x="189.5" y="224.0278">register</text><rect fill="#EEEEEE" filter="url(#fo7p2dr6v4et6)" height="3" style="stroke: #EEEEEE; stroke-width: 1.0;" width="332.5" x="3" y="257.6602"/><line style="stroke: #000000; stroke-width: 1.0;" x1="3" x2="335.5" y1="257.6602" y2="257.6602"/><line style="stroke: #000000; stroke-width: 1.0;" x1="3" x2="335.5" y1="260.6602" y2="260.6602"/><rect fill="#EEEEEE" filter="url(#fo7p2dr6v4et6)" height="23.1328" style="stroke: #000000; stroke-width: 2.0;" width="75" x="131.75" y="247.0938"/><text fill="#000000" font-family="sans-serif" font-size="13" font-weight="bold" lengthAdjust="spacingAndGlyphs" textLength="56" x="137.75" y="263.1606">Deposit</text><polygon fill="#A80036" points="93,297.2266,103,301.2266,93,305.2266,97,301.2266" style="stroke: #A80036; stroke-width: 1.0;"/><line style="stroke: #A80036; stroke-width: 1.0;" x1="33" x2="99" y1="301.2266" y2="301.2266"/><text fill="#000000" font-family="sans-serif" font-size="13" lengthAdjust="spacingAndGlyphs" textLength="48" x="40" y="296.2935">deposit</text><line style="stroke: #A80036; stroke-width: 1.0;" x1="105" x2="147" y1="330.4922" y2="330.4922"/><line style="stroke: #A80036; stroke-width: 1.0;" x1="147" x2="147" y1="330.4922" y2="343.4922"/><line style="stroke: #A80036; stroke-width: 1.0;" x1="106" x2="147" y1="343.4922" y2="343.4922"/><polygon fill="#A80036" points="116,339.4922,106,343.4922,116,347.4922,112,343.4922" style="stroke: #A80036; stroke-width: 1.0;"/><text fill="#000000" font-family="sans-serif" font-size="13" lengthAdjust="spacingAndGlyphs" textLength="53" x="112" y="325.4263">approve</text><polygon fill="#A80036" points="255.5,368.4922,265.5,372.4922,255.5,376.4922,259.5,372.4922" style="stroke: #A80036; stroke-width: 1.0;"/><line style="stroke: #A80036; stroke-width: 1.0;" x1="105" x2="261.5" y1="372.4922" y2="372.4922"/><text fill="#000000" font-family="sans-serif" font-size="13" lengthAdjust="spacingAndGlyphs" textLength="48" x="112" y="367.5591">deposit</text><line style="stroke: #A80036; stroke-width: 1.0;" x1="267.5" x2="309.5" y1="401.7578" y2="401.7578"/><line style="stroke: #A80036; stroke-width: 1.0;" x1="309.5" x2="309.5" y1="401.7578" y2="414.7578"/><line style="stroke: #A80036; stroke-width: 1.0;" x1="268.5" x2="309.5" y1="414.7578" y2="414.7578"/><polygon fill="#A80036" points="278.5,410.7578,268.5,414.7578,278.5,418.7578,274.5,414.7578" style="stroke: #A80036; stroke-width: 1.0;"/><text fill="#000000" font-family="sans-serif" font-size="13" lengthAdjust="spacingAndGlyphs" textLength="53" x="274.5" y="396.6919">activate</text><rect fill="#EEEEEE" filter="url(#fo7p2dr6v4et6)" height="3" style="stroke: #EEEEEE; stroke-width: 1.0;" width="332.5" x="3" y="443.3242"/><line style="stroke: #000000; stroke-width: 1.0;" x1="3" x2="335.5" y1="443.3242" y2="443.3242"/><line style="stroke: #000000; stroke-width: 1.0;" x1="3" x2="335.5" y1="446.3242" y2="446.3242"/><rect fill="#EEEEEE" filter="url(#fo7p2dr6v4et6)" height="23.1328" style="stroke: #000000; stroke-width: 2.0;" width="47" x="145.75" y="432.7578"/><text fill="#000000" font-family="sans-serif" font-size="13" font-weight="bold" lengthAdjust="spacingAndGlyphs" textLength="28" x="151.75" y="448.8247">Use</text><polygon fill="#A80036" points="170.5,482.8906,180.5,486.8906,170.5,490.8906,174.5,486.8906" style="stroke: #A80036; stroke-width: 1.0;"/><line style="stroke: #A80036; stroke-width: 1.0;" x1="33" x2="176.5" y1="486.8906" y2="486.8906"/><text fill="#000000" font-family="sans-serif" font-size="13" lengthAdjust="spacingAndGlyphs" textLength="49" x="40" y="481.9575">request</text><polygon fill="#A80036" points="255.5,512.0234,265.5,516.0234,255.5,520.0234,259.5,516.0234" style="stroke: #A80036; stroke-width: 1.0;"/><line style="stroke: #A80036; stroke-width: 1.0;" x1="182.5" x2="261.5" y1="516.0234" y2="516.0234"/><text fill="#000000" font-family="sans-serif" font-size="13" lengthAdjust="spacingAndGlyphs" textLength="44" x="189.5" y="511.0903">charge</text><polygon fill="#A80036" points="193.5,541.1563,183.5,545.1563,193.5,549.1563,189.5,545.1563" style="stroke: #A80036; stroke-width: 1.0;"/><line style="stroke: #A80036; stroke-width: 1.0;" x1="187.5" x2="266.5" y1="545.1563" y2="545.1563"/><text fill="#000000" font-family="sans-serif" font-size="13" lengthAdjust="spacingAndGlyphs" textLength="61" x="199.5" y="540.2231">authorize</text><polygon fill="#A80036" points="170.5,570.2891,180.5,574.2891,170.5,578.2891,174.5,574.2891" style="stroke: #A80036; stroke-width: 1.0;"/><line style="stroke: #A80036; stroke-width: 1.0;" x1="33" x2="176.5" y1="574.2891" y2="574.2891"/><text fill="#000000" font-family="sans-serif" font-size="13" lengthAdjust="spacingAndGlyphs" textLength="23" x="40" y="569.356">use</text><polygon fill="#A80036" points="255.5,599.4219,265.5,603.4219,255.5,607.4219,259.5,603.4219" style="stroke: #A80036; stroke-width: 1.0;"/><line style="stroke: #A80036; stroke-width: 1.0;" x1="182.5" x2="261.5" y1="603.4219" y2="603.4219"/><text fill="#000000" font-family="sans-serif" font-size="13" lengthAdjust="spacingAndGlyphs" textLength="42" x="189.5" y="598.4888">refund</text><rect fill="#EEEEEE" filter="url(#fo7p2dr6v4et6)" height="3" style="stroke: #EEEEEE; stroke-width: 1.0;" width="332.5" x="3" y="632.1211"/><line style="stroke: #000000; stroke-width: 1.0;" x1="3" x2="335.5" y1="632.1211" y2="632.1211"/><line style="stroke: #000000; stroke-width: 1.0;" x1="3" x2="335.5" y1="635.1211" y2="635.1211"/><rect fill="#EEEEEE" filter="url(#fo7p2dr6v4et6)" height="23.1328" style="stroke: #000000; stroke-width: 2.0;" width="111" x="113.75" y="621.5547"/><text fill="#000000" font-family="sans-serif" font-size="13" font-weight="bold" lengthAdjust="spacingAndGlyphs" textLength="92" x="119.75" y="637.6216">Deactivation</text><polygon fill="#A80036" points="255.5,699.6875,265.5,703.6875,255.5,707.6875,259.5,703.6875" style="stroke: #A80036; stroke-width: 1.0;"/><line style="stroke: #A80036; stroke-width: 1.0;" x1="105" x2="261.5" y1="703.6875" y2="703.6875"/><text fill="#000000" font-family="sans-serif" font-size="13" lengthAdjust="spacingAndGlyphs" textLength="54" x="112" y="698.7544">suspend</text><polygon fill="#A80036" points="44,728.8203,34,732.8203,44,736.8203,40,732.8203" style="stroke: #A80036; stroke-width: 1.0;"/><line style="stroke: #A80036; stroke-width: 1.0;" x1="38" x2="266.5" y1="732.8203" y2="732.8203"/><text fill="#000000" font-family="sans-serif" font-size="13" lengthAdjust="spacingAndGlyphs" textLength="38" x="50" y="727.8872">notify</text><line style="stroke: #A80036; stroke-width: 1.0;" x1="267.5" x2="309.5" y1="790.0859" y2="790.0859"/><line style="stroke: #A80036; stroke-width: 1.0;" x1="309.5" x2="309.5" y1="790.0859" y2="803.0859"/><line style="stroke: #A80036; stroke-width: 1.0;" x1="268.5" x2="309.5" y1="803.0859" y2="803.0859"/><polygon fill="#A80036" points="278.5,799.0859,268.5,803.0859,278.5,807.0859,274.5,803.0859" style="stroke: #A80036; stroke-width: 1.0;"/><text fill="#000000" font-family="sans-serif" font-size="13" lengthAdjust="spacingAndGlyphs" textLength="54" x="274.5" y="785.02">suspend</text><polygon fill="#A80036" points="44,828.0859,34,832.0859,44,836.0859,40,832.0859" style="stroke: #A80036; stroke-width: 1.0;"/><line style="stroke: #A80036; stroke-width: 1.0;" x1="38" x2="266.5" y1="832.0859" y2="832.0859"/><text fill="#000000" font-family="sans-serif" font-size="13" lengthAdjust="spacingAndGlyphs" textLength="38" x="50" y="827.1528">notify</text><polygon fill="#A80036" points="255.5,885.2188,265.5,889.2188,255.5,893.2188,259.5,889.2188" style="stroke: #A80036; stroke-width: 1.0;"/><line style="stroke: #A80036; stroke-width: 1.0;" x1="105" x2="261.5" y1="889.2188" y2="889.2188"/><text fill="#000000" font-family="sans-serif" font-size="13" lengthAdjust="spacingAndGlyphs" textLength="41" x="112" y="884.2856">delete</text><polygon fill="#A80036" points="44,914.3516,34,918.3516,44,922.3516,40,918.3516" style="stroke: #A80036; stroke-width: 1.0;"/><line style="stroke: #A80036; stroke-width: 1.0;" x1="38" x2="266.5" y1="918.3516" y2="918.3516"/><text fill="#000000" font-family="sans-serif" font-size="13" lengthAdjust="spacingAndGlyphs" textLength="38" x="50" y="913.4185">notify</text><!--
@startuml
== Register ==
User->Admin: apply
User->Service: apply
Admin->Account: create
Admin->Service:register
Service->Account:register
== Deposit ==
User->Admin: deposit
Admin->Admin:approve
Admin->Account: deposit
Account->Account: activate
== Use ==
User->Service: request
Service->Account: charge
Account->Service: authorize
User->Service: use
Service->Account: refund
== Deactivation ==
...
Admin->Account: suspend
Account->User: notify
...
Account->Account: suspend
Account->User: notify
...
Admin->Account: delete
Account->User: notify
...
@enduml

PlantUML version 1.2017.13(Wed May 10 12:52:33 EDT 2017)
(GPL source distribution)
Java Runtime: OpenJDK Runtime Environment
JVM: OpenJDK 64-Bit Server VM
Java Version: 1.8.0_131-11
Operating System: Linux
OS Version: 4.9.25
Default Encoding: UTF-8
Language: en
Country: US
--></g></svg>