<?xml version="1.0" encoding="UTF-8" standalone="no"?><svg xmlns="http://www.w3.org/2000/svg" xmlns:xlink="http://www.w3.org/1999/xlink" contentScriptType="application/ecmascript" contentStyleType="text/css" height="739px" preserveAspectRatio="none" style="width:573px;height:739px;" version="1.1" viewBox="0 0 573 739" width="573px" zoomAndPan="magnify"><defs><filter height="300%" id="f8eigkq5tezqi" width="300%" x="-1" y="-1"><feGaussianBlur result="blurOut" stdDeviation="2.0"/><feColorMatrix in="blurOut" result="blurOut2" type="matrix" values="0 0 0 0 0 0 0 0 0 0 0 0 0 0 0 0 0 0 .4 0"/><feOffset dx="4.0" dy="4.0" in="blurOut2" result="blurOut3"/><feBlend in="SourceGraphic" in2="blurOut3" mode="normal"/></filter></defs><g><line style="stroke: #A80036; stroke-width: 1.0; stroke-dasharray: 5.0,5.0;" x1="32" x2="32" y1="38.4883" y2="700.6992"/><line style="stroke: #A80036; stroke-width: 1.0; stroke-dasharray: 5.0,5.0;" x1="202.5" x2="202.5" y1="38.4883" y2="700.6992"/><line style="stroke: #A80036; stroke-width: 1.0; stroke-dasharray: 5.0,5.0;" x1="331.5" x2="331.5" y1="38.4883" y2="700.6992"/><line style="stroke: #A80036; stroke-width: 1.0; stroke-dasharray: 5.0,5.0;" x1="441.5" x2="441.5" y1="38.4883" y2="700.6992"/><line style="stroke: #A80036; stroke-width: 1.0; stroke-dasharray: 5.0,5.0;" x1="526.5" x2="526.5" y1="38.4883" y2="700.6992"/><rect fill="#FEFECE" filter="url(#f8eigkq5tezqi)" height="30.4883" style="stroke: #A80036; stroke-width: 1.5;" width="45" x="8" y="3"/><text fill="#000000" font-family="sans-serif" font-size="14" lengthAdjust="spacingAndGlyphs" textLength="31" x="15" y="23.5352">User</text><rect fill="#FEFECE" filter="url(#f8eigkq5tezqi)" height="30.4883" style="stroke: #A80036; stroke-width: 1.5;" width="45" x="8" y="699.6992"/><text fill="#000000" font-family="sans-serif" font-size="14" lengthAdjust="spacingAndGlyphs" textLength="31" x="15" y="720.2344">User</text><rect fill="#FEFECE" filter="url(#f8eigkq5tezqi)" height="30.4883" style="stroke: #A80036; stroke-width: 1.5;" width="70" x="165.5" y="3"/><text fill="#000000" font-family="sans-serif" font-size="14" lengthAdjust="spacingAndGlyphs" textLength="56" x="172.5" y="23.5352">Defaults</text><rect fill="#FEFECE" filter="url(#f8eigkq5tezqi)" height="30.4883" style="stroke: #A80036; stroke-width: 1.5;" width="70" x="165.5" y="699.6992"/><text fill="#000000" font-family="sans-serif" font-size="14" lengthAdjust="spacingAndGlyphs" textLength="56" x="172.5" y="720.2344">Defaults</text><rect fill="#FEFECE" filter="url(#f8eigkq5tezqi)" height="30.4883" style="stroke: #A80036; stroke-width: 1.5;" width="34" x="312.5" y="3"/><text fill="#000000" font-family="sans-serif" font-size="14" lengthAdjust="spacingAndGlyphs" textLength="20" x="319.5" y="23.5352">cm</text><rect fill="#FEFECE" filter="url(#f8eigkq5tezqi)" height="30.4883" style="stroke: #A80036; stroke-width: 1.5;" width="34" x="312.5" y="699.6992"/><text fill="#000000" font-family="sans-serif" font-size="14" lengthAdjust="spacingAndGlyphs" textLength="20" x="319.5" y="720.2344">cm</text><rect fill="#FEFECE" filter="url(#f8eigkq5tezqi)" height="30.4883" style="stroke: #A80036; stroke-width: 1.5;" width="72" x="403.5" y="3"/><text fill="#000000" font-family="sans-serif" font-size="14" lengthAdjust="spacingAndGlyphs" textLength="58" x="410.5" y="23.5352">Cloud_A</text><rect fill="#FEFECE" filter="url(#f8eigkq5tezqi)" height="30.4883" style="stroke: #A80036; stroke-width: 1.5;" width="72" x="403.5" y="699.6992"/><text fill="#000000" font-family="sans-serif" font-size="14" lengthAdjust="spacingAndGlyphs" textLength="58" x="410.5" y="720.2344">Cloud_A</text><rect fill="#FEFECE" filter="url(#f8eigkq5tezqi)" height="30.4883" style="stroke: #A80036; stroke-width: 1.5;" width="70" x="489.5" y="3"/><text fill="#000000" font-family="sans-serif" font-size="14" lengthAdjust="spacingAndGlyphs" textLength="56" x="496.5" y="23.5352">Cloud_B</text><rect fill="#FEFECE" filter="url(#f8eigkq5tezqi)" height="30.4883" style="stroke: #A80036; stroke-width: 1.5;" width="70" x="489.5" y="699.6992"/><text fill="#000000" font-family="sans-serif" font-size="14" lengthAdjust="spacingAndGlyphs" textLength="56" x="496.5" y="720.2344">Cloud_B</text><rect fill="#EEEEEE" filter="url(#f8eigkq5tezqi)" height="3" style="stroke: #EEEEEE; stroke-width: 1.0;" width="565.5" x="3" y="69.1436"/><line style="stroke: #000000; stroke-width: 1.0;" x1="3" x2="568.5" y1="69.1436" y2="69.1436"/><line style="stroke: #000000; stroke-width: 1.0;" x1="3" x2="568.5" y1="72.1436" y2="72.1436"/><rect fill="#EEEEEE" filter="url(#f8eigkq5tezqi)" height="23.3105" style="stroke: #000000; stroke-width: 2.0;" width="98" x="236.75" y="58.4883"/><text fill="#000000" font-family="sans-serif" font-size="13" font-weight="bold" lengthAdjust="spacingAndGlyphs" textLength="80" x="242.75" y="75.0566">Set Cloud_A</text><polygon fill="#A80036" points="190.5,108.7988,200.5,112.7988,190.5,116.7988,194.5,112.7988" style="stroke: #A80036; stroke-width: 1.0;"/><line style="stroke: #A80036; stroke-width: 1.0;" x1="32.5" x2="196.5" y1="112.7988" y2="112.7988"/><text fill="#000000" font-family="sans-serif" font-size="13" lengthAdjust="spacingAndGlyphs" textLength="146" x="39.5" y="108.3672">default cloud=Cloud_A</text><rect fill="#EEEEEE" filter="url(#f8eigkq5tezqi)" height="3" style="stroke: #EEEEEE; stroke-width: 1.0;" width="565.5" x="3" y="141.7646"/><line style="stroke: #000000; stroke-width: 1.0;" x1="3" x2="568.5" y1="141.7646" y2="141.7646"/><line style="stroke: #000000; stroke-width: 1.0;" x1="3" x2="568.5" y1="144.7646" y2="144.7646"/><rect fill="#EEEEEE" filter="url(#f8eigkq5tezqi)" height="23.3105" style="stroke: #000000; stroke-width: 2.0;" width="150" x="210.75" y="131.1094"/><text fill="#000000" font-family="sans-serif" font-size="13" font-weight="bold" lengthAdjust="spacingAndGlyphs" textLength="132" x="216.75" y="147.6777">Boot VM on Cloud A</text><polygon fill="#A80036" points="319.5,181.4199,329.5,185.4199,319.5,189.4199,323.5,185.4199" style="stroke: #A80036; stroke-width: 1.0;"/><line style="stroke: #A80036; stroke-width: 1.0;" x1="32.5" x2="325.5" y1="185.4199" y2="185.4199"/><text fill="#000000" font-family="sans-serif" font-size="13" lengthAdjust="spacingAndGlyphs" textLength="52" x="39.5" y="180.9883">vm boot</text><polygon fill="#A80036" points="213.5,210.7305,203.5,214.7305,213.5,218.7305,209.5,214.7305" style="stroke: #A80036; stroke-width: 1.0;"/><line style="stroke: #A80036; stroke-width: 1.0;" x1="207.5" x2="330.5" y1="214.7305" y2="214.7305"/><text fill="#000000" font-family="sans-serif" font-size="13" lengthAdjust="spacingAndGlyphs" textLength="59" x="219.5" y="210.2988">get cloud</text><polygon fill="#A80036" points="213.5,240.041,203.5,244.041,213.5,248.041,209.5,244.041" style="stroke: #A80036; stroke-width: 1.0;"/><line style="stroke: #A80036; stroke-width: 1.0;" x1="207.5" x2="330.5" y1="244.041" y2="244.041"/><text fill="#000000" font-family="sans-serif" font-size="13" lengthAdjust="spacingAndGlyphs" textLength="105" x="219.5" y="239.6094">get image(cloud)</text><polygon fill="#A80036" points="213.5,269.3516,203.5,273.3516,213.5,277.3516,209.5,273.3516" style="stroke: #A80036; stroke-width: 1.0;"/><line style="stroke: #A80036; stroke-width: 1.0;" x1="207.5" x2="330.5" y1="273.3516" y2="273.3516"/><text fill="#000000" font-family="sans-serif" font-size="13" lengthAdjust="spacingAndGlyphs" textLength="99" x="219.5" y="268.9199">get flavor(coud)</text><polygon fill="#A80036" points="429.5,298.6621,439.5,302.6621,429.5,306.6621,433.5,302.6621" style="stroke: #A80036; stroke-width: 1.0;"/><line style="stroke: #A80036; stroke-width: 1.0;" x1="331.5" x2="435.5" y1="302.6621" y2="302.6621"/><text fill="#000000" font-family="sans-serif" font-size="13" lengthAdjust="spacingAndGlyphs" textLength="52" x="338.5" y="298.2305">boot vm</text><polygon fill="#A80036" points="342.5,327.9727,332.5,331.9727,342.5,335.9727,338.5,331.9727" style="stroke: #A80036; stroke-width: 1.0;"/><line style="stroke: #A80036; stroke-width: 1.0;" x1="336.5" x2="440.5" y1="331.9727" y2="331.9727"/><text fill="#000000" font-family="sans-serif" font-size="13" lengthAdjust="spacingAndGlyphs" textLength="86" x="348.5" y="327.541">status update</text><polygon fill="#A80036" points="43.5,357.2832,33.5,361.2832,43.5,365.2832,39.5,361.2832" style="stroke: #A80036; stroke-width: 1.0;"/><line style="stroke: #A80036; stroke-width: 1.0;" x1="37.5" x2="330.5" y1="361.2832" y2="361.2832"/><text fill="#000000" font-family="sans-serif" font-size="13" lengthAdjust="spacingAndGlyphs" textLength="86" x="49.5" y="356.8516">status update</text><rect fill="#EEEEEE" filter="url(#f8eigkq5tezqi)" height="3" style="stroke: #EEEEEE; stroke-width: 1.0;" width="565.5" x="3" y="390.249"/><line style="stroke: #000000; stroke-width: 1.0;" x1="3" x2="568.5" y1="390.249" y2="390.249"/><line style="stroke: #000000; stroke-width: 1.0;" x1="3" x2="568.5" y1="393.249" y2="393.249"/><rect fill="#EEEEEE" filter="url(#f8eigkq5tezqi)" height="23.3105" style="stroke: #000000; stroke-width: 2.0;" width="93" x="239.25" y="379.5938"/><text fill="#000000" font-family="sans-serif" font-size="13" font-weight="bold" lengthAdjust="spacingAndGlyphs" textLength="75" x="245.25" y="396.1621">Set Cloud B</text><polygon fill="#A80036" points="190.5,429.9043,200.5,433.9043,190.5,437.9043,194.5,433.9043" style="stroke: #A80036; stroke-width: 1.0;"/><line style="stroke: #A80036; stroke-width: 1.0;" x1="32.5" x2="196.5" y1="433.9043" y2="433.9043"/><text fill="#000000" font-family="sans-serif" font-size="13" lengthAdjust="spacingAndGlyphs" textLength="144" x="39.5" y="429.4727">default cloud=Cloud_B</text><rect fill="#EEEEEE" filter="url(#f8eigkq5tezqi)" height="3" style="stroke: #EEEEEE; stroke-width: 1.0;" width="565.5" x="3" y="462.8701"/><line style="stroke: #000000; stroke-width: 1.0;" x1="3" x2="568.5" y1="462.8701" y2="462.8701"/><line style="stroke: #000000; stroke-width: 1.0;" x1="3" x2="568.5" y1="465.8701" y2="465.8701"/><rect fill="#EEEEEE" filter="url(#f8eigkq5tezqi)" height="23.3105" style="stroke: #000000; stroke-width: 2.0;" width="148" x="211.75" y="452.2148"/><text fill="#000000" font-family="sans-serif" font-size="13" font-weight="bold" lengthAdjust="spacingAndGlyphs" textLength="130" x="217.75" y="468.7832">Boot VM on Cloud B</text><polygon fill="#A80036" points="319.5,502.5254,329.5,506.5254,319.5,510.5254,323.5,506.5254" style="stroke: #A80036; stroke-width: 1.0;"/><line style="stroke: #A80036; stroke-width: 1.0;" x1="32.5" x2="325.5" y1="506.5254" y2="506.5254"/><text fill="#000000" font-family="sans-serif" font-size="13" lengthAdjust="spacingAndGlyphs" textLength="52" x="39.5" y="502.0938">vm boot</text><polygon fill="#A80036" points="213.5,531.8359,203.5,535.8359,213.5,539.8359,209.5,535.8359" style="stroke: #A80036; stroke-width: 1.0;"/><line style="stroke: #A80036; stroke-width: 1.0;" x1="207.5" x2="330.5" y1="535.8359" y2="535.8359"/><text fill="#000000" font-family="sans-serif" font-size="13" lengthAdjust="spacingAndGlyphs" textLength="59" x="219.5" y="531.4043">get cloud</text><polygon fill="#A80036" points="213.5,561.1465,203.5,565.1465,213.5,569.1465,209.5,565.1465" style="stroke: #A80036; stroke-width: 1.0;"/><line style="stroke: #A80036; stroke-width: 1.0;" x1="207.5" x2="330.5" y1="565.1465" y2="565.1465"/><text fill="#000000" font-family="sans-serif" font-size="13" lengthAdjust="spacingAndGlyphs" textLength="105" x="219.5" y="560.7148">get image(cloud)</text><polygon fill="#A80036" points="213.5,590.457,203.5,594.457,213.5,598.457,209.5,594.457" style="stroke: #A80036; stroke-width: 1.0;"/><line style="stroke: #A80036; stroke-width: 1.0;" x1="207.5" x2="330.5" y1="594.457" y2="594.457"/><text fill="#000000" font-family="sans-serif" font-size="13" lengthAdjust="spacingAndGlyphs" textLength="99" x="219.5" y="590.0254">get flavor(coud)</text><polygon fill="#A80036" points="514.5,619.7676,524.5,623.7676,514.5,627.7676,518.5,623.7676" style="stroke: #A80036; stroke-width: 1.0;"/><line style="stroke: #A80036; stroke-width: 1.0;" x1="331.5" x2="520.5" y1="623.7676" y2="623.7676"/><text fill="#000000" font-family="sans-serif" font-size="13" lengthAdjust="spacingAndGlyphs" textLength="52" x="338.5" y="619.3359">boot vm</text><polygon fill="#A80036" points="342.5,649.0781,332.5,653.0781,342.5,657.0781,338.5,653.0781" style="stroke: #A80036; stroke-width: 1.0;"/><line style="stroke: #A80036; stroke-width: 1.0;" x1="336.5" x2="525.5" y1="653.0781" y2="653.0781"/><text fill="#000000" font-family="sans-serif" font-size="13" lengthAdjust="spacingAndGlyphs" textLength="86" x="348.5" y="648.6465">status update</text><polygon fill="#A80036" points="43.5,678.3887,33.5,682.3887,43.5,686.3887,39.5,682.3887" style="stroke: #A80036; stroke-width: 1.0;"/><line style="stroke: #A80036; stroke-width: 1.0;" x1="37.5" x2="330.5" y1="682.3887" y2="682.3887"/><text fill="#000000" font-family="sans-serif" font-size="13" lengthAdjust="spacingAndGlyphs" textLength="86" x="49.5" y="677.957">status update</text><!--
@startuml
== Set Cloud_A ==
User->Defaults: default cloud=Cloud_A
== Boot VM on Cloud A ==
User->cm: vm boot
cm->Defaults: get cloud
cm->Defaults: get image(cloud)
cm->Defaults: get flavor(coud)
cm->Cloud_A: boot vm
Cloud_A->cm: status update
cm->User: status update
== Set Cloud B ==
User->Defaults: default cloud=Cloud_B
== Boot VM on Cloud B ==
User->cm: vm boot
cm->Defaults: get cloud
cm->Defaults: get image(cloud)
cm->Defaults: get flavor(coud)
cm->Cloud_B: boot vm
Cloud_B->cm: status update
cm->User: status update
@enduml

PlantUML version 1.2017.13(Wed May 10 12:52:33 EDT 2017)
(GPL source distribution)
Java Runtime: Java(TM) SE Runtime Environment
JVM: Java HotSpot(TM) 64-Bit Server VM
Java Version: 1.8.0_121-b13
Operating System: Mac OS X
OS Version: 10.12.4
Default Encoding: UTF-8
Language: en
Country: US
--></g></svg>