<?xml version="1.0" encoding="UTF-8" standalone="no"?><svg xmlns="http://www.w3.org/2000/svg" xmlns:xlink="http://www.w3.org/1999/xlink" contentScriptType="application/ecmascript" contentStyleType="text/css" height="735px" preserveAspectRatio="none" style="width:588px;height:735px;" version="1.1" viewBox="0 0 588 735" width="588px" zoomAndPan="magnify"><defs><filter height="300%" id="f8eigkq5tezqi" width="300%" x="-1" y="-1"><feGaussianBlur result="blurOut" stdDeviation="2.0"/><feColorMatrix in="blurOut" result="blurOut2" type="matrix" values="0 0 0 0 0 0 0 0 0 0 0 0 0 0 0 0 0 0 .4 0"/><feOffset dx="4.0" dy="4.0" in="blurOut2" result="blurOut3"/><feBlend in="SourceGraphic" in2="blurOut3" mode="normal"/></filter></defs><g><line style="stroke: #A80036; stroke-width: 1.0; stroke-dasharray: 5.0,5.0;" x1="33" x2="33" y1="38.2969" y2="696.9531"/><line style="stroke: #A80036; stroke-width: 1.0; stroke-dasharray: 5.0,5.0;" x1="205.5" x2="205.5" y1="38.2969" y2="696.9531"/><line style="stroke: #A80036; stroke-width: 1.0; stroke-dasharray: 5.0,5.0;" x1="341" x2="341" y1="38.2969" y2="696.9531"/><line style="stroke: #A80036; stroke-width: 1.0; stroke-dasharray: 5.0,5.0;" x1="454" x2="454" y1="38.2969" y2="696.9531"/><line style="stroke: #A80036; stroke-width: 1.0; stroke-dasharray: 5.0,5.0;" x1="540" x2="540" y1="38.2969" y2="696.9531"/><rect fill="#FEFECE" filter="url(#f8eigkq5tezqi)" height="30.2969" style="stroke: #A80036; stroke-width: 1.5;" width="46" x="8" y="3"/><text fill="#000000" font-family="sans-serif" font-size="14" lengthAdjust="spacingAndGlyphs" textLength="32" x="15" y="22.9951">User</text><rect fill="#FEFECE" filter="url(#f8eigkq5tezqi)" height="30.2969" style="stroke: #A80036; stroke-width: 1.5;" width="46" x="8" y="695.9531"/><text fill="#000000" font-family="sans-serif" font-size="14" lengthAdjust="spacingAndGlyphs" textLength="32" x="15" y="715.9482">User</text><rect fill="#FEFECE" filter="url(#f8eigkq5tezqi)" height="30.2969" style="stroke: #A80036; stroke-width: 1.5;" width="73" x="167.5" y="3"/><text fill="#000000" font-family="sans-serif" font-size="14" lengthAdjust="spacingAndGlyphs" textLength="59" x="174.5" y="22.9951">Defaults</text><rect fill="#FEFECE" filter="url(#f8eigkq5tezqi)" height="30.2969" style="stroke: #A80036; stroke-width: 1.5;" width="73" x="167.5" y="695.9531"/><text fill="#000000" font-family="sans-serif" font-size="14" lengthAdjust="spacingAndGlyphs" textLength="59" x="174.5" y="715.9482">Defaults</text><rect fill="#FEFECE" filter="url(#f8eigkq5tezqi)" height="30.2969" style="stroke: #A80036; stroke-width: 1.5;" width="36" x="321" y="3"/><text fill="#000000" font-family="sans-serif" font-size="14" lengthAdjust="spacingAndGlyphs" textLength="22" x="328" y="22.9951">cm</text><rect fill="#FEFECE" filter="url(#f8eigkq5tezqi)" height="30.2969" style="stroke: #A80036; stroke-width: 1.5;" width="36" x="321" y="695.9531"/><text fill="#000000" font-family="sans-serif" font-size="14" lengthAdjust="spacingAndGlyphs" textLength="22" x="328" y="715.9482">cm</text><rect fill="#FEFECE" filter="url(#f8eigkq5tezqi)" height="30.2969" style="stroke: #A80036; stroke-width: 1.5;" width="72" x="416" y="3"/><text fill="#000000" font-family="sans-serif" font-size="14" lengthAdjust="spacingAndGlyphs" textLength="58" x="423" y="22.9951">Cloud_A</text><rect fill="#FEFECE" filter="url(#f8eigkq5tezqi)" height="30.2969" style="stroke: #A80036; stroke-width: 1.5;" width="72" x="416" y="695.9531"/><text fill="#000000" font-family="sans-serif" font-size="14" lengthAdjust="spacingAndGlyphs" textLength="58" x="423" y="715.9482">Cloud_A</text><rect fill="#FEFECE" filter="url(#f8eigkq5tezqi)" height="30.2969" style="stroke: #A80036; stroke-width: 1.5;" width="72" x="502" y="3"/><text fill="#000000" font-family="sans-serif" font-size="14" lengthAdjust="spacingAndGlyphs" textLength="58" x="509" y="22.9951">Cloud_B</text><rect fill="#FEFECE" filter="url(#f8eigkq5tezqi)" height="30.2969" style="stroke: #A80036; stroke-width: 1.5;" width="72" x="502" y="695.9531"/><text fill="#000000" font-family="sans-serif" font-size="14" lengthAdjust="spacingAndGlyphs" textLength="58" x="509" y="715.9482">Cloud_B</text><rect fill="#EEEEEE" filter="url(#f8eigkq5tezqi)" height="3" style="stroke: #EEEEEE; stroke-width: 1.0;" width="580" x="3" y="68.8633"/><line style="stroke: #000000; stroke-width: 1.0;" x1="3" x2="583" y1="68.8633" y2="68.8633"/><line style="stroke: #000000; stroke-width: 1.0;" x1="3" x2="583" y1="71.8633" y2="71.8633"/><rect fill="#EEEEEE" filter="url(#f8eigkq5tezqi)" height="23.1328" style="stroke: #000000; stroke-width: 2.0;" width="106" x="240" y="58.2969"/><text fill="#000000" font-family="sans-serif" font-size="13" font-weight="bold" lengthAdjust="spacingAndGlyphs" textLength="87" x="246" y="74.3638">Set Cloud_A</text><polygon fill="#A80036" points="194,108.4297,204,112.4297,194,116.4297,198,112.4297" style="stroke: #A80036; stroke-width: 1.0;"/><line style="stroke: #A80036; stroke-width: 1.0;" x1="33" x2="200" y1="112.4297" y2="112.4297"/><text fill="#000000" font-family="sans-serif" font-size="13" lengthAdjust="spacingAndGlyphs" textLength="149" x="40" y="107.4966">default cloud=Cloud_A</text><rect fill="#EEEEEE" filter="url(#f8eigkq5tezqi)" height="3" style="stroke: #EEEEEE; stroke-width: 1.0;" width="580" x="3" y="141.1289"/><line style="stroke: #000000; stroke-width: 1.0;" x1="3" x2="583" y1="141.1289" y2="141.1289"/><line style="stroke: #000000; stroke-width: 1.0;" x1="3" x2="583" y1="144.1289" y2="144.1289"/><rect fill="#EEEEEE" filter="url(#f8eigkq5tezqi)" height="23.1328" style="stroke: #000000; stroke-width: 2.0;" width="165" x="210.5" y="130.5625"/><text fill="#000000" font-family="sans-serif" font-size="13" font-weight="bold" lengthAdjust="spacingAndGlyphs" textLength="146" x="216.5" y="146.6294">Boot VM on Cloud A</text><polygon fill="#A80036" points="329,180.6953,339,184.6953,329,188.6953,333,184.6953" style="stroke: #A80036; stroke-width: 1.0;"/><line style="stroke: #A80036; stroke-width: 1.0;" x1="33" x2="335" y1="184.6953" y2="184.6953"/><text fill="#000000" font-family="sans-serif" font-size="13" lengthAdjust="spacingAndGlyphs" textLength="54" x="40" y="179.7622">vm boot</text><polygon fill="#A80036" points="217,209.8281,207,213.8281,217,217.8281,213,213.8281" style="stroke: #A80036; stroke-width: 1.0;"/><line style="stroke: #A80036; stroke-width: 1.0;" x1="211" x2="340" y1="213.8281" y2="213.8281"/><text fill="#000000" font-family="sans-serif" font-size="13" lengthAdjust="spacingAndGlyphs" textLength="60" x="223" y="208.895">get cloud</text><polygon fill="#A80036" points="217,238.9609,207,242.9609,217,246.9609,213,242.9609" style="stroke: #A80036; stroke-width: 1.0;"/><line style="stroke: #A80036; stroke-width: 1.0;" x1="211" x2="340" y1="242.9609" y2="242.9609"/><text fill="#000000" font-family="sans-serif" font-size="13" lengthAdjust="spacingAndGlyphs" textLength="111" x="223" y="238.0278">get image(cloud)</text><polygon fill="#A80036" points="217,268.0938,207,272.0938,217,276.0938,213,272.0938" style="stroke: #A80036; stroke-width: 1.0;"/><line style="stroke: #A80036; stroke-width: 1.0;" x1="211" x2="340" y1="272.0938" y2="272.0938"/><text fill="#000000" font-family="sans-serif" font-size="13" lengthAdjust="spacingAndGlyphs" textLength="104" x="223" y="267.1606">get flavor(coud)</text><polygon fill="#A80036" points="442,297.2266,452,301.2266,442,305.2266,446,301.2266" style="stroke: #A80036; stroke-width: 1.0;"/><line style="stroke: #A80036; stroke-width: 1.0;" x1="341" x2="448" y1="301.2266" y2="301.2266"/><text fill="#000000" font-family="sans-serif" font-size="13" lengthAdjust="spacingAndGlyphs" textLength="54" x="348" y="296.2935">boot vm</text><polygon fill="#A80036" points="352,326.3594,342,330.3594,352,334.3594,348,330.3594" style="stroke: #A80036; stroke-width: 1.0;"/><line style="stroke: #A80036; stroke-width: 1.0;" x1="346" x2="453" y1="330.3594" y2="330.3594"/><text fill="#000000" font-family="sans-serif" font-size="13" lengthAdjust="spacingAndGlyphs" textLength="89" x="358" y="325.4263">status update</text><polygon fill="#A80036" points="44,355.4922,34,359.4922,44,363.4922,40,359.4922" style="stroke: #A80036; stroke-width: 1.0;"/><line style="stroke: #A80036; stroke-width: 1.0;" x1="38" x2="340" y1="359.4922" y2="359.4922"/><text fill="#000000" font-family="sans-serif" font-size="13" lengthAdjust="spacingAndGlyphs" textLength="89" x="50" y="354.5591">status update</text><rect fill="#EEEEEE" filter="url(#f8eigkq5tezqi)" height="3" style="stroke: #EEEEEE; stroke-width: 1.0;" width="580" x="3" y="388.1914"/><line style="stroke: #000000; stroke-width: 1.0;" x1="3" x2="583" y1="388.1914" y2="388.1914"/><line style="stroke: #000000; stroke-width: 1.0;" x1="3" x2="583" y1="391.1914" y2="391.1914"/><rect fill="#EEEEEE" filter="url(#f8eigkq5tezqi)" height="23.1328" style="stroke: #000000; stroke-width: 2.0;" width="104" x="241" y="377.625"/><text fill="#000000" font-family="sans-serif" font-size="13" font-weight="bold" lengthAdjust="spacingAndGlyphs" textLength="85" x="247" y="393.6919">Set Cloud B</text><polygon fill="#A80036" points="194,427.7578,204,431.7578,194,435.7578,198,431.7578" style="stroke: #A80036; stroke-width: 1.0;"/><line style="stroke: #A80036; stroke-width: 1.0;" x1="33" x2="200" y1="431.7578" y2="431.7578"/><text fill="#000000" font-family="sans-serif" font-size="13" lengthAdjust="spacingAndGlyphs" textLength="149" x="40" y="426.8247">default cloud=Cloud_B</text><rect fill="#EEEEEE" filter="url(#f8eigkq5tezqi)" height="3" style="stroke: #EEEEEE; stroke-width: 1.0;" width="580" x="3" y="460.457"/><line style="stroke: #000000; stroke-width: 1.0;" x1="3" x2="583" y1="460.457" y2="460.457"/><line style="stroke: #000000; stroke-width: 1.0;" x1="3" x2="583" y1="463.457" y2="463.457"/><rect fill="#EEEEEE" filter="url(#f8eigkq5tezqi)" height="23.1328" style="stroke: #000000; stroke-width: 2.0;" width="165" x="210.5" y="449.8906"/><text fill="#000000" font-family="sans-serif" font-size="13" font-weight="bold" lengthAdjust="spacingAndGlyphs" textLength="146" x="216.5" y="465.9575">Boot VM on Cloud B</text><polygon fill="#A80036" points="329,500.0234,339,504.0234,329,508.0234,333,504.0234" style="stroke: #A80036; stroke-width: 1.0;"/><line style="stroke: #A80036; stroke-width: 1.0;" x1="33" x2="335" y1="504.0234" y2="504.0234"/><text fill="#000000" font-family="sans-serif" font-size="13" lengthAdjust="spacingAndGlyphs" textLength="54" x="40" y="499.0903">vm boot</text><polygon fill="#A80036" points="217,529.1563,207,533.1563,217,537.1563,213,533.1563" style="stroke: #A80036; stroke-width: 1.0;"/><line style="stroke: #A80036; stroke-width: 1.0;" x1="211" x2="340" y1="533.1563" y2="533.1563"/><text fill="#000000" font-family="sans-serif" font-size="13" lengthAdjust="spacingAndGlyphs" textLength="60" x="223" y="528.2231">get cloud</text><polygon fill="#A80036" points="217,558.2891,207,562.2891,217,566.2891,213,562.2891" style="stroke: #A80036; stroke-width: 1.0;"/><line style="stroke: #A80036; stroke-width: 1.0;" x1="211" x2="340" y1="562.2891" y2="562.2891"/><text fill="#000000" font-family="sans-serif" font-size="13" lengthAdjust="spacingAndGlyphs" textLength="111" x="223" y="557.356">get image(cloud)</text><polygon fill="#A80036" points="217,587.4219,207,591.4219,217,595.4219,213,591.4219" style="stroke: #A80036; stroke-width: 1.0;"/><line style="stroke: #A80036; stroke-width: 1.0;" x1="211" x2="340" y1="591.4219" y2="591.4219"/><text fill="#000000" font-family="sans-serif" font-size="13" lengthAdjust="spacingAndGlyphs" textLength="104" x="223" y="586.4888">get flavor(coud)</text><polygon fill="#A80036" points="528,616.5547,538,620.5547,528,624.5547,532,620.5547" style="stroke: #A80036; stroke-width: 1.0;"/><line style="stroke: #A80036; stroke-width: 1.0;" x1="341" x2="534" y1="620.5547" y2="620.5547"/><text fill="#000000" font-family="sans-serif" font-size="13" lengthAdjust="spacingAndGlyphs" textLength="54" x="348" y="615.6216">boot vm</text><polygon fill="#A80036" points="352,645.6875,342,649.6875,352,653.6875,348,649.6875" style="stroke: #A80036; stroke-width: 1.0;"/><line style="stroke: #A80036; stroke-width: 1.0;" x1="346" x2="539" y1="649.6875" y2="649.6875"/><text fill="#000000" font-family="sans-serif" font-size="13" lengthAdjust="spacingAndGlyphs" textLength="89" x="358" y="644.7544">status update</text><polygon fill="#A80036" points="44,674.8203,34,678.8203,44,682.8203,40,678.8203" style="stroke: #A80036; stroke-width: 1.0;"/><line style="stroke: #A80036; stroke-width: 1.0;" x1="38" x2="340" y1="678.8203" y2="678.8203"/><text fill="#000000" font-family="sans-serif" font-size="13" lengthAdjust="spacingAndGlyphs" textLength="89" x="50" y="673.8872">status update</text><!--
@startuml
== Set Cloud_A ==
User->Defaults: default cloud=Cloud_A
== Boot VM on Cloud A ==
User->cm: vm boot
cm->Defaults: get cloud
cm->Defaults: get image(cloud)
cm->Defaults: get flavor(coud)
cm->Cloud_A: boot vm
Cloud_A->cm: status update
cm->User: status update
== Set Cloud B ==
User->Defaults: default cloud=Cloud_B
== Boot VM on Cloud B ==
User->cm: vm boot
cm->Defaults: get cloud
cm->Defaults: get image(cloud)
cm->Defaults: get flavor(coud)
cm->Cloud_B: boot vm
Cloud_B->cm: status update
cm->User: status update
@enduml

PlantUML version 1.2017.13(Wed May 10 12:52:33 EDT 2017)
(GPL source distribution)
Java Runtime: OpenJDK Runtime Environment
JVM: OpenJDK 64-Bit Server VM
Java Version: 1.8.0_131-11
Operating System: Linux
OS Version: 4.9.25
Default Encoding: UTF-8
Language: en
Country: US
--></g></svg>