<?xml version="1.0" encoding="UTF-8" standalone="no"?><svg xmlns="http://www.w3.org/2000/svg" xmlns:xlink="http://www.w3.org/1999/xlink" contentScriptType="application/ecmascript" contentStyleType="text/css" height="300px" preserveAspectRatio="none" style="width:543px;height:300px;" version="1.1" viewBox="0 0 543 300" width="543px" zoomAndPan="magnify"><defs><filter height="300%" id="f1nijtklk8phiq" width="300%" x="-1" y="-1"><feGaussianBlur result="blurOut" stdDeviation="2.0"/><feColorMatrix in="blurOut" result="blurOut2" type="matrix" values="0 0 0 0 0 0 0 0 0 0 0 0 0 0 0 0 0 0 .4 0"/><feOffset dx="4.0" dy="4.0" in="blurOut2" result="blurOut3"/><feBlend in="SourceGraphic" in2="blurOut3" mode="normal"/></filter></defs><g><line style="stroke: #A80036; stroke-width: 1.0; stroke-dasharray: 5.0,5.0;" x1="33" x2="33" y1="38.2969" y2="262.2266"/><line style="stroke: #A80036; stroke-width: 1.0; stroke-dasharray: 5.0,5.0;" x1="294" x2="294" y1="38.2969" y2="262.2266"/><line style="stroke: #A80036; stroke-width: 1.0; stroke-dasharray: 5.0,5.0;" x1="366" x2="366" y1="38.2969" y2="262.2266"/><line style="stroke: #A80036; stroke-width: 1.0; stroke-dasharray: 5.0,5.0;" x1="425" x2="425" y1="38.2969" y2="262.2266"/><line style="stroke: #A80036; stroke-width: 1.0; stroke-dasharray: 5.0,5.0;" x1="508.5" x2="508.5" y1="38.2969" y2="262.2266"/><rect fill="#FEFECE" filter="url(#f1nijtklk8phiq)" height="30.2969" style="stroke: #A80036; stroke-width: 1.5;" width="46" x="8" y="3"/><text fill="#000000" font-family="sans-serif" font-size="14" lengthAdjust="spacingAndGlyphs" textLength="32" x="15" y="22.9951">User</text><rect fill="#FEFECE" filter="url(#f1nijtklk8phiq)" height="30.2969" style="stroke: #A80036; stroke-width: 1.5;" width="46" x="8" y="261.2266"/><text fill="#000000" font-family="sans-serif" font-size="14" lengthAdjust="spacingAndGlyphs" textLength="32" x="15" y="281.2217">User</text><rect fill="#FEFECE" filter="url(#f1nijtklk8phiq)" height="30.2969" style="stroke: #A80036; stroke-width: 1.5;" width="64" x="260" y="3"/><text fill="#000000" font-family="sans-serif" font-size="14" lengthAdjust="spacingAndGlyphs" textLength="50" x="267" y="22.9951">Cluster</text><rect fill="#FEFECE" filter="url(#f1nijtklk8phiq)" height="30.2969" style="stroke: #A80036; stroke-width: 1.5;" width="64" x="260" y="261.2266"/><text fill="#000000" font-family="sans-serif" font-size="14" lengthAdjust="spacingAndGlyphs" textLength="50" x="267" y="281.2217">Cluster</text><rect fill="#FEFECE" filter="url(#f1nijtklk8phiq)" height="30.2969" style="stroke: #A80036; stroke-width: 1.5;" width="53" x="338" y="3"/><text fill="#000000" font-family="sans-serif" font-size="14" lengthAdjust="spacingAndGlyphs" textLength="39" x="345" y="22.9951">Stack</text><rect fill="#FEFECE" filter="url(#f1nijtklk8phiq)" height="30.2969" style="stroke: #A80036; stroke-width: 1.5;" width="53" x="338" y="261.2266"/><text fill="#000000" font-family="sans-serif" font-size="14" lengthAdjust="spacingAndGlyphs" textLength="39" x="345" y="281.2217">Stack</text><rect fill="#FEFECE" filter="url(#f1nijtklk8phiq)" height="30.2969" style="stroke: #A80036; stroke-width: 1.5;" width="36" x="405" y="3"/><text fill="#000000" font-family="sans-serif" font-size="14" lengthAdjust="spacingAndGlyphs" textLength="22" x="412" y="22.9951">cm</text><rect fill="#FEFECE" filter="url(#f1nijtklk8phiq)" height="30.2969" style="stroke: #A80036; stroke-width: 1.5;" width="36" x="405" y="261.2266"/><text fill="#000000" font-family="sans-serif" font-size="14" lengthAdjust="spacingAndGlyphs" textLength="22" x="412" y="281.2217">cm</text><rect fill="#FEFECE" filter="url(#f1nijtklk8phiq)" height="30.2969" style="stroke: #A80036; stroke-width: 1.5;" width="55" x="479.5" y="3"/><text fill="#000000" font-family="sans-serif" font-size="14" lengthAdjust="spacingAndGlyphs" textLength="41" x="486.5" y="22.9951">Cloud</text><rect fill="#FEFECE" filter="url(#f1nijtklk8phiq)" height="30.2969" style="stroke: #A80036; stroke-width: 1.5;" width="55" x="479.5" y="261.2266"/><text fill="#000000" font-family="sans-serif" font-size="14" lengthAdjust="spacingAndGlyphs" textLength="41" x="486.5" y="281.2217">Cloud</text><polygon fill="#A80036" points="282,65.2969,292,69.2969,282,73.2969,286,69.2969" style="stroke: #A80036; stroke-width: 1.0;"/><line style="stroke: #A80036; stroke-width: 1.0;" x1="33" x2="288" y1="69.2969" y2="69.2969"/><text fill="#000000" font-family="sans-serif" font-size="13" lengthAdjust="spacingAndGlyphs" textLength="237" x="40" y="64.3638">define (cpu, memory, disk, network)</text><polygon fill="#A80036" points="354.5,94.4297,364.5,98.4297,354.5,102.4297,358.5,98.4297" style="stroke: #A80036; stroke-width: 1.0;"/><line style="stroke: #A80036; stroke-width: 1.0;" x1="33" x2="360.5" y1="98.4297" y2="98.4297"/><text fill="#000000" font-family="sans-serif" font-size="13" lengthAdjust="spacingAndGlyphs" textLength="112" x="40" y="93.4966">define (software)</text><polygon fill="#A80036" points="413,123.5625,423,127.5625,413,131.5625,417,127.5625" style="stroke: #A80036; stroke-width: 1.0;"/><line style="stroke: #A80036; stroke-width: 1.0;" x1="33" x2="419" y1="127.5625" y2="127.5625"/><text fill="#000000" font-family="sans-serif" font-size="13" lengthAdjust="spacingAndGlyphs" textLength="83" x="40" y="122.6294">deploy stack</text><polygon fill="#A80036" points="305,152.6953,295,156.6953,305,160.6953,301,156.6953" style="stroke: #A80036; stroke-width: 1.0;"/><line style="stroke: #A80036; stroke-width: 1.0;" x1="299" x2="424" y1="156.6953" y2="156.6953"/><text fill="#000000" font-family="sans-serif" font-size="13" lengthAdjust="spacingAndGlyphs" textLength="29" x="311" y="151.7622">read</text><polygon fill="#A80036" points="497,181.8281,507,185.8281,497,189.8281,501,185.8281" style="stroke: #A80036; stroke-width: 1.0;"/><line style="stroke: #A80036; stroke-width: 1.0;" x1="425" x2="503" y1="185.8281" y2="185.8281"/><text fill="#000000" font-family="sans-serif" font-size="13" lengthAdjust="spacingAndGlyphs" textLength="29" x="432" y="180.895">boot</text><polygon fill="#A80036" points="377.5,210.9609,367.5,214.9609,377.5,218.9609,373.5,214.9609" style="stroke: #A80036; stroke-width: 1.0;"/><line style="stroke: #A80036; stroke-width: 1.0;" x1="371.5" x2="424" y1="214.9609" y2="214.9609"/><text fill="#000000" font-family="sans-serif" font-size="13" lengthAdjust="spacingAndGlyphs" textLength="29" x="383.5" y="210.0278">read</text><polygon fill="#A80036" points="497,240.0938,507,244.0938,497,248.0938,501,244.0938" style="stroke: #A80036; stroke-width: 1.0;"/><line style="stroke: #A80036; stroke-width: 1.0;" x1="425" x2="503" y1="244.0938" y2="244.0938"/><text fill="#000000" font-family="sans-serif" font-size="13" lengthAdjust="spacingAndGlyphs" textLength="60" x="432" y="239.1606">provision</text><!--
@startuml
User -> Cluster: define (cpu, memory, disk, network)
User -> Stack: define (software)
User -> cm: deploy stack
cm -> Cluster: read
cm -> Cloud: boot
cm -> Stack: read
cm -> Cloud: provision
@enduml

PlantUML version 1.2017.13(Wed May 10 12:52:33 EDT 2017)
(GPL source distribution)
Java Runtime: OpenJDK Runtime Environment
JVM: OpenJDK 64-Bit Server VM
Java Version: 1.8.0_131-11
Operating System: Linux
OS Version: 4.9.25
Default Encoding: UTF-8
Language: en
Country: US
--></g></svg>