<?xml version="1.0" encoding="UTF-8" standalone="no"?><svg xmlns="http://www.w3.org/2000/svg" xmlns:xlink="http://www.w3.org/1999/xlink" contentScriptType="application/ecmascript" contentStyleType="text/css" height="366px" preserveAspectRatio="none" style="width:390px;height:366px;" version="1.1" viewBox="0 0 390 366" width="390px" zoomAndPan="magnify"><defs><filter height="300%" id="f1cdpvzasb6t8" width="300%" x="-1" y="-1"><feGaussianBlur result="blurOut" stdDeviation="2.0"/><feColorMatrix in="blurOut" result="blurOut2" type="matrix" values="0 0 0 0 0 0 0 0 0 0 0 0 0 0 0 0 0 0 .4 0"/><feOffset dx="4.0" dy="4.0" in="blurOut2" result="blurOut3"/><feBlend in="SourceGraphic" in2="blurOut3" mode="normal"/></filter></defs><g><rect fill="#FFFFFF" filter="url(#f1cdpvzasb6t8)" height="146.5527" style="stroke: #383838; stroke-width: 1.0;" width="10" x="95.5" y="117.4883"/><rect fill="#FFFFFF" filter="url(#f1cdpvzasb6t8)" height="87.9316" style="stroke: #383838; stroke-width: 1.0;" width="10" x="231.5" y="146.7988"/><rect fill="#FFFFFF" filter="url(#f1cdpvzasb6t8)" height="29.3105" style="stroke: #383838; stroke-width: 1.0;" width="10" x="338" y="176.1094"/><line style="stroke: #383838; stroke-width: 1.0; stroke-dasharray: 5.0,5.0;" x1="26" x2="26" y1="86.4883" y2="282.3516"/><line style="stroke: #383838; stroke-width: 1.0; stroke-dasharray: 5.0,5.0;" x1="100.5" x2="100.5" y1="86.4883" y2="282.3516"/><line style="stroke: #383838; stroke-width: 1.0; stroke-dasharray: 5.0,5.0;" x1="236.5" x2="236.5" y1="86.4883" y2="282.3516"/><line style="stroke: #383838; stroke-width: 1.0; stroke-dasharray: 5.0,5.0;" x1="342.5" x2="342.5" y1="86.4883" y2="282.3516"/><text fill="#000000" font-family="sans-serif" font-size="14" lengthAdjust="spacingAndGlyphs" textLength="31" x="8" y="83.5352">User</text><ellipse cx="26.5" cy="13" fill="#F8F8F8" filter="url(#f1cdpvzasb6t8)" rx="8" ry="8" style="stroke: #383838; stroke-width: 2.0;"/><path d="M26.5,21 L26.5,48 M13.5,29 L39.5,29 M26.5,48 L13.5,63 M26.5,48 L39.5,63 " fill="#F8F8F8" filter="url(#f1cdpvzasb6t8)" style="stroke: #383838; stroke-width: 2.0;"/><text fill="#000000" font-family="sans-serif" font-size="14" lengthAdjust="spacingAndGlyphs" textLength="31" x="8" y="294.8867">User</text><ellipse cx="26.5" cy="307.8398" fill="#F8F8F8" filter="url(#f1cdpvzasb6t8)" rx="8" ry="8" style="stroke: #383838; stroke-width: 2.0;"/><path d="M26.5,315.8398 L26.5,342.8398 M13.5,323.8398 L39.5,323.8398 M26.5,342.8398 L13.5,357.8398 M26.5,342.8398 L39.5,357.8398 " fill="#F8F8F8" filter="url(#f1cdpvzasb6t8)" style="stroke: #383838; stroke-width: 2.0;"/><rect fill="#F8F8F8" filter="url(#f1cdpvzasb6t8)" height="30.4883" style="stroke: #383838; stroke-width: 1.5;" width="84" x="56.5" y="51"/><text fill="#000000" font-family="sans-serif" font-size="14" lengthAdjust="spacingAndGlyphs" textLength="70" x="63.5" y="71.5352">First Class</text><rect fill="#F8F8F8" filter="url(#f1cdpvzasb6t8)" height="30.4883" style="stroke: #383838; stroke-width: 1.5;" width="84" x="56.5" y="281.3516"/><text fill="#000000" font-family="sans-serif" font-size="14" lengthAdjust="spacingAndGlyphs" textLength="70" x="63.5" y="301.8867">First Class</text><rect fill="#F8F8F8" filter="url(#f1cdpvzasb6t8)" height="30.4883" style="stroke: #383838; stroke-width: 1.5;" width="104" x="182.5" y="51"/><text fill="#000000" font-family="sans-serif" font-size="14" lengthAdjust="spacingAndGlyphs" textLength="90" x="189.5" y="71.5352">Second Class</text><rect fill="#F8F8F8" filter="url(#f1cdpvzasb6t8)" height="30.4883" style="stroke: #383838; stroke-width: 1.5;" width="104" x="182.5" y="281.3516"/><text fill="#000000" font-family="sans-serif" font-size="14" lengthAdjust="spacingAndGlyphs" textLength="90" x="189.5" y="301.8867">Second Class</text><rect fill="#F8F8F8" filter="url(#f1cdpvzasb6t8)" height="30.4883" style="stroke: #383838; stroke-width: 1.5;" width="81" x="300.5" y="51"/><text fill="#000000" font-family="sans-serif" font-size="14" lengthAdjust="spacingAndGlyphs" textLength="67" x="307.5" y="71.5352">Last Class</text><rect fill="#F8F8F8" filter="url(#f1cdpvzasb6t8)" height="30.4883" style="stroke: #383838; stroke-width: 1.5;" width="81" x="300.5" y="281.3516"/><text fill="#000000" font-family="sans-serif" font-size="14" lengthAdjust="spacingAndGlyphs" textLength="67" x="307.5" y="301.8867">Last Class</text><rect fill="#FFFFFF" filter="url(#f1cdpvzasb6t8)" height="146.5527" style="stroke: #383838; stroke-width: 1.0;" width="10" x="95.5" y="117.4883"/><rect fill="#FFFFFF" filter="url(#f1cdpvzasb6t8)" height="87.9316" style="stroke: #383838; stroke-width: 1.0;" width="10" x="231.5" y="146.7988"/><rect fill="#FFFFFF" filter="url(#f1cdpvzasb6t8)" height="29.3105" style="stroke: #383838; stroke-width: 1.0;" width="10" x="338" y="176.1094"/><polygon fill="#383838" points="83.5,113.4883,93.5,117.4883,83.5,121.4883,87.5,117.4883" style="stroke: #383838; stroke-width: 1.0;"/><line style="stroke: #383838; stroke-width: 1.0;" x1="26.5" x2="89.5" y1="117.4883" y2="117.4883"/><text fill="#000000" font-family="sans-serif" font-size="13" lengthAdjust="spacingAndGlyphs" textLength="50" x="33.5" y="113.0566">DoWork</text><polygon fill="#383838" points="219.5,142.7988,229.5,146.7988,219.5,150.7988,223.5,146.7988" style="stroke: #383838; stroke-width: 1.0;"/><line style="stroke: #383838; stroke-width: 1.0;" x1="105.5" x2="225.5" y1="146.7988" y2="146.7988"/><text fill="#000000" font-family="sans-serif" font-size="13" lengthAdjust="spacingAndGlyphs" textLength="94" x="112.5" y="142.3672">Create Request</text><polygon fill="#383838" points="326,172.1094,336,176.1094,326,180.1094,330,176.1094" style="stroke: #383838; stroke-width: 1.0;"/><line style="stroke: #383838; stroke-width: 1.0;" x1="241.5" x2="332" y1="176.1094" y2="176.1094"/><text fill="#000000" font-family="sans-serif" font-size="13" lengthAdjust="spacingAndGlyphs" textLength="50" x="248.5" y="171.6777">DoWork</text><polygon fill="#383838" points="252.5,201.4199,242.5,205.4199,252.5,209.4199,248.5,205.4199" style="stroke: #383838; stroke-width: 1.0;"/><line style="stroke: #383838; stroke-width: 1.0; stroke-dasharray: 2.0,2.0;" x1="246.5" x2="342" y1="205.4199" y2="205.4199"/><text fill="#000000" font-family="sans-serif" font-size="13" lengthAdjust="spacingAndGlyphs" textLength="65" x="258.5" y="200.9883">WorkDone</text><line style="stroke: #383838; stroke-width: 2.0;" x1="334" x2="352" y1="196.4199" y2="214.4199"/><line style="stroke: #383838; stroke-width: 2.0;" x1="334" x2="352" y1="214.4199" y2="196.4199"/><polygon fill="#383838" points="116.5,230.7305,106.5,234.7305,116.5,238.7305,112.5,234.7305" style="stroke: #383838; stroke-width: 1.0;"/><line style="stroke: #383838; stroke-width: 1.0; stroke-dasharray: 2.0,2.0;" x1="110.5" x2="235.5" y1="234.7305" y2="234.7305"/><text fill="#000000" font-family="sans-serif" font-size="13" lengthAdjust="spacingAndGlyphs" textLength="102" x="122.5" y="230.2988">Request Created</text><polygon fill="#383838" points="37.5,260.041,27.5,264.041,37.5,268.041,33.5,264.041" style="stroke: #383838; stroke-width: 1.0;"/><line style="stroke: #383838; stroke-width: 1.0; stroke-dasharray: 2.0,2.0;" x1="31.5" x2="99.5" y1="264.041" y2="264.041"/><text fill="#000000" font-family="sans-serif" font-size="13" lengthAdjust="spacingAndGlyphs" textLength="33" x="43.5" y="259.6094">Done</text><!--
@startuml

skinparam monochrome true

actor User
participant "First Class" as A
participant "Second Class" as B
participant "Last Class" as C

User -> A: DoWork
activate A

A -> B: Create Request
activate B

B -> C: DoWork
activate C
C - -> B: WorkDone
destroy C

B - -> A: Request Created
deactivate B

A - -> User: Done
deactivate A

@enduml

PlantUML version 1.2017.13(Wed May 10 12:52:33 EDT 2017)
(GPL source distribution)
Java Runtime: Java(TM) SE Runtime Environment
JVM: Java HotSpot(TM) 64-Bit Server VM
Java Version: 1.8.0_121-b13
Operating System: Mac OS X
OS Version: 10.12.4
Default Encoding: UTF-8
Language: en
Country: US
--></g></svg>